# xmcd
#
# Track frame offsets: 
#        150
#        13659
#        29720
#        45343
#        66825
#        92404
#        106404
#        116084
#        120536
#        148057
#        164178
#
# Disc length: 2586 seconds
#
# Revision: 0
# Processed by: cddbd v1.5.2PL0 Copyright (c) Steve Scherf et al.
# Submitted via: ExactAudioCopy v0.95b3
#
DISCID=990a180b
DTITLE=Sara Tindley - 5 Days
DYEAR=2002
DGENRE=Country
TTITLE0=Wazza
TTITLE1=Somewhere
TTITLE2=Rainbow
TTITLE3=Here Comes My Kingdom
TTITLE4=5 Days
TTITLE5=Down The Avenue
TTITLE6=H.R. Blues
TTITLE7=Sylvie
TTITLE8=Sun Came Creeping
TTITLE9=House By The Sea
TTITLE10=Saturday Night
EXTD=
EXTT0=
EXTT1=
EXTT2=
EXTT3=
EXTT4=
EXTT5=
EXTT6=
EXTT7=
EXTT8=
EXTT9=
EXTT10=
PLAYORDER=
